<?xml version="1.0" encoding="utf-8"?>
<!-- Generator: Adobe Illustrator 19.0.0, SVG Export Plug-In . SVG Version: 6.00 Build 0)  -->
<svg version="1.1" id="Capa_1" xmlns="http://www.w3.org/2000/svg" xmlns:xlink="http://www.w3.org/1999/xlink" x="0px" y="0px"
	 viewBox="0 0 450 70" style="enable-background:new 0 0 450 70;" xml:space="preserve">
<style type="text/css">
	.st0{fill:#003360;}
	.st1{fill-rule:evenodd;clip-rule:evenodd;fill:#003360;}
	.st2{fill:#2DAD4E;}
	.st3{fill-rule:evenodd;clip-rule:evenodd;fill:#2DAD4E;}
</style>
<g id="XMLID_578_">
	<g id="XMLID_620_">
		<g id="XMLID_621_">
			<path id="XMLID_639_" class="st0" d="M392.7,18.5c0-2.7,2.2-4.9,4.9-4.9c2.7,0,4.9,2.2,4.9,4.9c0,2.7-2.2,4.9-4.9,4.9
				C394.9,23.4,392.7,21.2,392.7,18.5z"/>
			<path id="XMLID_636_" class="st1" d="M389.1,39.9l-8.4-15.6v22.5c0,0.5-0.2,0.9-0.5,1.2c-0.3,0.3-0.8,0.5-1.3,0.5h-11.5
				c-0.5,0-0.9-0.2-1.3-0.5c-0.3-0.3-0.5-0.8-0.5-1.2V5c0-0.5,0.2-0.9,0.5-1.2c0.3-0.3,0.8-0.5,1.3-0.5h13.5c0.2,0,0.5,0.1,0.8,0.3
				c0.3,0.2,0.6,0.4,0.7,0.6l14.3,23.2c-1.9-0.3-3.4-1.4-4.4-2.9l-8.8-15c-0.8-1.2-2.4-1.7-3.6-1c-1.2,0.7-1.5,2.2-0.8,3.4l9.9,17
				c0,0.1,0,0.2,0,0.3V39.9z M414.1,3.3h13.6c0.5,0,0.9,0.2,1.3,0.5c0.3,0.3,0.5,0.8,0.5,1.2v41.8c0,0.5-0.2,0.9-0.5,1.2
				c-0.3,0.3-0.8,0.5-1.3,0.5h-11.5c-0.5,0-0.9-0.2-1.3-0.5c-0.4-0.3-0.5-0.8-0.5-1.2V24.3l-8,14.8v-9.9c0-0.1,0-0.2,0-0.3l10-17
				c0.8-1.2,0.4-2.8-0.8-3.4c-1.2-0.7-2.8-0.3-3.6,1l-8.8,15c-1.1,1.6-2.8,2.7-4.8,3l14.2-23.3c0.2-0.2,0.4-0.4,0.7-0.6
				C413.5,3.4,413.8,3.3,414.1,3.3z"/>
			<path id="XMLID_635_" class="st2" d="M371.2,52.9c-0.1,0-0.1,0-0.2,0.1c-0.1,0-0.1,0.1-0.2,0.1l-3.4,5.6l-3.5-5.6
				c0-0.1-0.1-0.1-0.2-0.1c-0.1,0-0.1-0.1-0.2-0.1h-3.1c-0.1,0-0.2,0-0.3,0.1c-0.1,0.1-0.1,0.2-0.1,0.3v9.6c0,0.1,0,0.2,0.1,0.3
				c0.1,0.1,0.2,0.1,0.3,0.1h2.6c0.1,0,0.2,0,0.3-0.1c0.1-0.1,0.1-0.2,0.1-0.3v-5.1l2.8,5.3c0,0.1,0.1,0.1,0.2,0.2
				c0.1,0,0.1,0.1,0.2,0.1h1.2c0.1,0,0.1,0,0.2-0.1c0.1,0,0.1-0.1,0.2-0.2l2.9-5.3v5.2c0,0.1,0,0.2,0.1,0.3c0.1,0.1,0.2,0.1,0.3,0.1
				h2.6c0.1,0,0.2,0,0.3-0.1c0.1-0.1,0.1-0.2,0.1-0.3v-9.6c0-0.1,0-0.2-0.1-0.3c-0.1-0.1-0.2-0.1-0.3-0.1H371.2z"/>
			<path id="XMLID_634_" class="st0" d="M378.1,63.2c0.1,0,0.2,0,0.2-0.1c0.1-0.1,0.1-0.2,0.1-0.3v-9.6c0-0.1,0-0.2-0.1-0.3
				c-0.1-0.1-0.1-0.1-0.2-0.1h-2.5c-0.1,0-0.2,0-0.2,0.1c-0.1,0.1-0.1,0.2-0.1,0.3v9.6c0,0.1,0,0.2,0.1,0.3c0.1,0.1,0.2,0.1,0.2,0.1
				H378.1z"/>
			<path id="XMLID_633_" class="st3" d="M382.6,58.1c0-0.9,0.3-1.6,0.8-2.1c0.6-0.5,1.3-0.7,2.3-0.7c0.3,0,0.6,0,0.9,0.1
				c0.3,0,0.6,0.1,0.9,0.2c0.6,0.2,1.1,0.3,1.5,0.4c0.1,0,0.3,0,0.4,0c0.1-0.1,0.2-0.2,0.1-0.4l-0.1-1.9c0-0.1,0-0.1-0.1-0.2
				c-0.1-0.1-0.1-0.1-0.2-0.1c-0.5-0.2-1-0.3-1.7-0.4c-0.7-0.1-1.4-0.2-2.3-0.2c-1,0-1.8,0.1-2.6,0.4c-0.8,0.2-1.4,0.6-1.9,1.1
				c-0.5,0.5-0.9,1-1.2,1.7c-0.3,0.7-0.4,1.5-0.4,2.4c0,1.7,0.6,3,1.7,3.9c1.1,0.9,2.6,1.3,4.6,1.3c0.8,0,1.6-0.1,2.3-0.2
				c0.7-0.1,1.4-0.3,2-0.5c0.1,0,0.1-0.1,0.2-0.2c0.1-0.1,0.1-0.2,0.1-0.2l0-2c0-0.1-0.1-0.3-0.2-0.3c-0.1-0.1-0.2-0.1-0.4,0
				c-0.2,0.1-0.4,0.2-0.7,0.2c-0.3,0.1-0.6,0.2-0.9,0.3h0c-0.6,0.2-1.3,0.2-2,0.2c-1,0-1.8-0.2-2.3-0.7c-0.3-0.2-0.5-0.5-0.6-0.8
				C382.7,58.9,382.6,58.5,382.6,58.1L382.6,58.1z"/>
			<path id="XMLID_630_" class="st3" d="M402.9,58c0-1.8-0.5-3.1-1.6-4c-1-0.9-2.6-1.3-4.6-1.3c-2,0-3.6,0.4-4.6,1.3
				c-1,0.9-1.6,2.2-1.6,4c0,1.8,0.5,3.1,1.6,4c1,0.9,2.6,1.3,4.6,1.3c2,0,3.6-0.4,4.6-1.3C402.4,61.2,402.9,59.8,402.9,58z
				 M399.2,58c0,0.8-0.2,1.3-0.7,1.7c-0.4,0.4-1.1,0.6-1.9,0.6c-0.8,0-1.5-0.2-1.9-0.6c-0.4-0.4-0.6-1-0.6-1.7
				c0-0.8,0.2-1.3,0.6-1.7c0.4-0.4,1.1-0.6,1.9-0.6c0.8,0,1.5,0.2,1.9,0.6C399,56.7,399.2,57.3,399.2,58z"/>
			<path id="XMLID_627_" class="st3" d="M415.9,58c0-1.8-0.5-3.1-1.6-4c-1-0.9-2.6-1.3-4.6-1.3c-2,0-3.6,0.4-4.6,1.3
				c-1,0.9-1.6,2.2-1.6,4c0,1.8,0.5,3.1,1.6,4c1,0.9,2.6,1.3,4.6,1.3c2,0,3.6-0.4,4.6-1.3C415.3,61.2,415.9,59.8,415.9,58z
				 M412.2,58c0,0.8-0.2,1.3-0.6,1.7c-0.4,0.4-1.1,0.6-1.9,0.6c-0.8,0-1.5-0.2-1.9-0.6c-0.4-0.4-0.7-1-0.7-1.7
				c0-0.8,0.2-1.3,0.7-1.7c0.4-0.4,1-0.6,1.9-0.6c0.8,0,1.5,0.2,1.9,0.6C412,56.7,412.2,57.3,412.2,58z"/>
			<path id="XMLID_624_" class="st3" d="M421.4,59.5c1.4,0,2.5-0.3,3.3-0.8c0.7-0.6,1.1-1.4,1.1-2.6c0-0.6-0.1-1.1-0.3-1.5
				c-0.2-0.4-0.5-0.8-1-1c-0.4-0.3-1-0.5-1.6-0.6c-0.6-0.1-1.4-0.2-2.2-0.2h-3.9c-0.1,0-0.2,0-0.3,0.1c-0.1,0.1-0.1,0.2-0.1,0.3v9.6
				c0,0.1,0,0.2,0.1,0.3c0.1,0.1,0.2,0.1,0.3,0.1h2.8c0.1,0,0.2,0,0.3-0.1c0.1-0.1,0.1-0.2,0.1-0.3v-3.3L421.4,59.5z M420.8,55.2
				c0.5,0,0.8,0,1.1,0.2c0.3,0.2,0.4,0.4,0.4,0.8c0,0.7-0.5,1-1.6,1l-0.7,0v-1.9L420.8,55.2z"/>
			<path id="XMLID_623_" class="st2" d="M434.8,63.2c0.1,0,0.2,0,0.3-0.1c0.1-0.1,0.1-0.2,0.1-0.3v-1.9c0-0.1,0-0.2-0.1-0.3
				c-0.1-0.1-0.2-0.1-0.3-0.1H430v-1.1l3.8,0c0.1,0,0.2,0,0.3-0.1c0.1-0.1,0.1-0.2,0.1-0.3v-1.9c0-0.1,0-0.2-0.1-0.3
				c-0.1-0.1-0.2-0.1-0.3-0.1H430v-1h4.4c0.1,0,0.2,0,0.3-0.1c0.1-0.1,0.1-0.2,0.1-0.3v-1.9c0-0.1,0-0.2-0.1-0.3
				c-0.1-0.1-0.2-0.1-0.3-0.1h-7.7c-0.1,0-0.2,0-0.3,0.1c-0.1,0.1-0.1,0.2-0.1,0.3v9.6c0,0.1,0,0.2,0.1,0.3c0.1,0.1,0.2,0.1,0.3,0.1
				H434.8z"/>
			<rect id="XMLID_622_" x="359.8" y="65.6" class="st0" width="75.4" height="1"/>
		</g>
	</g>
	<g id="XMLID_614_">
		<path id="XMLID_617_" class="st0" d="M334.3,28.7c0.1,0.4,0.1,0.7,0.1,1c0,2-1.4,4.1-4.2,6.1c-2.5,1.9-4.7,2.8-6.5,2.8
			c-0.2,0.1-0.3,0.4-0.3,0.7c0,0.2,0,0.4,0,0.4c0.1,0.6,0.4,1,0.9,1.3c0.4,0.3,0.9,0.4,1.3,0.4c1.3,0,2.8-0.6,4.6-1.8
			c1.7-1.3,3.5-2.6,5.2-3.9c0.1,0,0.2,0.1,0.3,0.2c0.1,0.1,0.2,0.2,0.2,0.2c-0.3,1.2-1.5,2.5-3.5,4.1c-2.3,1.8-4.3,2.7-6.1,2.7
			c-1.1,0-1.9-0.3-2.7-0.9c-0.7-0.6-1.2-1.2-1.4-2c-0.1-0.3-0.1-0.5,0-0.7c0-0.2,0.1-0.4,0.1-0.5c0-0.1-0.2-0.4-0.5-0.7
			c-0.3-0.3-0.5-0.6-0.5-0.7c-0.1-0.4,0.3-0.6,1-0.6c0.4-2.3,1.5-4.6,3.2-6.7c1.9-2.4,4-3.6,6.1-3.6c0.8,0,1.4,0.2,1.8,0.6
			C333.8,27.3,334.1,27.9,334.3,28.7z M333.1,28.6c-0.2-0.7-0.6-1.1-1.4-1.1c-1.8,0-3.6,1.1-5.2,3.2c-1.5,1.9-2.2,3.7-2.2,5.2
			c0,0.1,0,0.3,0.1,0.6c1.8,0,3.7-1,5.9-3.1C332.5,31.3,333.4,29.7,333.1,28.6z"/>
		<path id="XMLID_615_" class="st0" d="M349.4,26.4c-0.9,0.7-1.6,1.2-2.1,1.5c-1.5,1-2.5,1.5-2.9,1.5h-0.4c-0.6,0.1-1.5,0.7-2.8,1.9
			c-1.6,1.4-2.3,2.7-2.3,3.9c1.1,0,2.5-0.2,4.1-0.7c1.6-0.5,3.2-1,4.9-1.5c0.7,0,1.1,0.1,1.1,0.4c0.1,0.2,0.1,0.5,0.1,0.7
			c0,0.3,0,0.5,0,0.6c-0.6,1.4-1.7,2.9-3.4,4.4c-1.6,1.4-3,2.2-4.4,2.5c-0.2,0-0.4,0.1-0.5,0.2c-0.2,0.1-0.3,0.2-0.4,0.2
			c-0.1-0.5,0.4-1.3,1.6-2.2c2.9-2.2,4.4-3.8,4.4-4.8c-0.6,0-1.9,0.4-4,1.3c-2.1,0.8-3.5,1.3-4.2,1.3c-0.3,0-0.6-0.2-0.8-0.5
			c-0.3-0.3-0.4-0.6-0.5-1c-0.3-0.9,0.9-2.6,3.3-5c2.5-2.4,4.9-4.1,7.3-5.3c0.1,0.1,0.4,0.2,1,0.3C349,26.1,349.3,26.2,349.4,26.4z"
			/>
	</g>
	<g id="XMLID_579_">
		<path id="XMLID_612_" class="st0" d="M37.9,43.3c-0.5,0.2-0.9,0.3-1.3,0.5c-0.4,0.1-0.7,0.2-1,0.3c-0.3,0.1-0.8,0.2-1.4,0.4
			c-1,0.2-2.1,0.4-3.1,0.6c-1,0.1-2.1,0.2-3.3,0.2c-2.3,0-4.5-0.4-6.4-1.3c-2-0.8-3.6-2.2-4.7-4c-1.2-1.8-1.8-4-1.8-6.6
			c0-1.7,0.3-3.3,0.9-4.9c0.6-1.6,1.5-2.9,2.8-3.9c1-0.8,2.1-1.4,3.1-1.8c1.1-0.4,2.1-0.7,3.1-0.9c1-0.1,2.1-0.2,3.4-0.2
			c2,0,3.7,0.2,5,0.5c1.3,0.3,2.7,0.7,4.3,1.2v5.4c-1-0.6-2.1-1.1-3.3-1.5c-1.2-0.4-2.6-0.6-4.3-0.6c-2,0-3.6,0.4-4.8,1.1
			c-1.2,0.8-2,1.7-2.5,2.7c-0.5,1-0.7,2.1-0.7,3c0,1.2,0.3,2.2,0.8,3.2c0.5,1,1.4,1.8,2.4,2.3c1.1,0.6,2.4,0.9,4,0.9
			c0.9,0,1.8-0.1,2.8-0.3v-2.7h-3.1v-4.6h9.1V43.3z"/>
		<path id="XMLID_610_" class="st0" d="M67.2,34.7c0,2-0.4,3.6-1.1,5c-0.7,1.4-1.7,2.5-2.9,3.3c-1.2,0.8-2.5,1.4-3.9,1.7
			c-1.4,0.4-2.8,0.5-4.2,0.5c-1.9,0-3.8-0.3-5.7-1c-1.8-0.7-3.4-1.8-4.6-3.4c-1.2-1.6-1.9-3.7-1.9-6.2V22h6.9v10.9
			c0,1.5,0.2,2.8,0.7,3.7c0.4,1,1,1.7,1.8,2.2c0.8,0.5,1.7,0.7,2.8,0.7c1,0,1.9-0.2,2.7-0.7c0.8-0.5,1.4-1.2,1.8-2.1
			c0.4-1,0.7-2.2,0.7-3.7V22h6.9V34.7z"/>
		<path id="XMLID_607_" class="st0" d="M96.3,44.9h-7.1l-1.9-4.6h-9.9l-1.9,4.6h-7.1L78.5,22h7.6L96.3,44.9z M85.8,36.3L82.4,28
			L79,36.3H85.8z"/>
		<path id="XMLID_604_" class="st0" d="M122.9,33.9c0,2.3-0.4,4.2-1.3,5.7c-0.9,1.4-1.9,2.6-3,3.5c-1.6,1.3-3.9,1.9-6.9,1.9h-0.3
			h-12V22h9.5c1.4,0,2.7,0.1,3.7,0.2c1,0.1,1.9,0.4,2.8,0.6c0.8,0.3,1.5,0.6,2.1,0.9c0.6,0.3,1.1,0.7,1.5,1.1
			c0.8,0.6,1.5,1.4,2.1,2.3c0.6,0.9,1.1,1.9,1.4,3C122.7,31.3,122.9,32.6,122.9,33.9z M115.8,33.6c0-1.9-0.4-3.3-1.1-4.4
			c-0.7-1-1.6-1.7-2.6-2.1c-1-0.4-2-0.5-3-0.5h-2.9v13.6h2.9c1.8,0,3.4-0.4,4.7-1.3C115.2,38.1,115.8,36.3,115.8,33.6z"/>
		<path id="XMLID_601_" class="st0" d="M150.8,44.9h-7.1l-1.9-4.6h-10l-1.9,4.6H123L133.1,22h7.6L150.8,44.9z M140.3,36.3L137,28
			l-3.4,8.4H140.3z"/>
		<path id="XMLID_599_" class="st0" d="M171.3,44.9h-17.4V22h6.9v17.4h10.5V44.9z"/>
		<path id="XMLID_597_" class="st0" d="M197.2,34.7c0,2-0.4,3.6-1.1,5c-0.7,1.4-1.7,2.5-2.9,3.3c-1.2,0.8-2.5,1.4-3.9,1.7
			c-1.4,0.4-2.8,0.5-4.2,0.5c-1.9,0-3.8-0.3-5.7-1c-1.8-0.7-3.4-1.8-4.6-3.4c-1.2-1.6-1.9-3.7-1.9-6.2V22h6.9v10.9
			c0,1.5,0.2,2.8,0.7,3.7c0.4,1,1,1.7,1.8,2.2c0.8,0.5,1.7,0.7,2.8,0.7c1,0,1.9-0.2,2.7-0.7c0.8-0.5,1.4-1.2,1.8-2.1
			c0.4-1,0.7-2.2,0.7-3.7V22h6.9V34.7z"/>
		<path id="XMLID_594_" class="st0" d="M222.5,29.2c0,0.8-0.1,1.7-0.4,2.5c-0.3,0.8-0.8,1.6-1.4,2.3c-0.7,0.7-1.5,1.3-2.6,1.7
			c-1.1,0.4-2.4,0.7-3.9,0.7h-4.5v8.6h-6.9V22h11.4c1.5,0,2.8,0.2,3.9,0.7c1.1,0.4,2,1,2.6,1.7c0.6,0.7,1.1,1.5,1.4,2.3
			C222.3,27.5,222.5,28.4,222.5,29.2z M215.4,29.3c0-1.1-0.3-1.8-1-2.2c-0.6-0.4-1.8-0.6-3.5-0.6h-1.5V32h1.5c1.1,0,2-0.1,2.6-0.2
			c0.6-0.1,1.1-0.4,1.3-0.8C215.3,30.6,215.4,30,215.4,29.3z"/>
		<path id="XMLID_591_" class="st0" d="M248.6,44.9h-7.1l-1.9-4.6h-9.9l-1.9,4.6h-7.1L230.8,22h7.6L248.6,44.9z M238,36.3l-3.4-8.4
			l-3.4,8.4H238z"/>
		<path id="XMLID_589_" class="st0" d="M276.5,44.9h-6.1l-11.9-12.8v12.8h-6.8V22h6.1l11.9,12.7V22h6.9V44.9z"/>
		<path id="XMLID_580_" class="st0" d="M306.9,44.9h-7.1l-1.9-4.6H288l-1.9,4.6h-7.1L289.2,22h7.6L306.9,44.9z M296.4,36.3L293,28
			l-3.4,8.4H296.4z"/>
	</g>
</g>
</svg>
